<svg version="1.1" xmlns="http://www.w3.org/2000/svg" xmlns:xlink="http://www.w3.org/1999/xlink" width="386.33971" height="337.59205" viewBox="0,0,386.33971,337.59205"><g transform="translate(-47.66243,-13.74262)"><g data-paper-data="{&quot;isPaintingLayer&quot;:true}" fill="none" fill-rule="nonzero" stroke="#666666" stroke-width="2" stroke-linecap="round" stroke-linejoin="miter" stroke-miterlimit="10" stroke-dasharray="" stroke-dashoffset="0" font-family="none" font-weight="none" font-size="none" text-anchor="none" style="mix-blend-mode: normal"><path d="M327.4,77.5l18.6,5.6l1,34l-4.74205,0.55249l-10.50795,-0.06913l-14.5,14.75l5,12.5l-3.5,10.25" data-paper-data="{&quot;origPos&quot;:null}"/><path d="M330.6,76.9l0.6,-12.6l35.8,1.2l11.8,14.2l-16.4,3.2l-0.16401,34.88393l7.51401,0.04943l14.25,14.75h10.75l-0.25,26l11.25,7l15.25,-6.25l2.75,-18.5l9.25,7.5l-0.66667,149.16666l-8,8h-31.66667l-15,15.33333l-133.33333,-1l-8,-8.33333l-1.33334,-15.66667l-29,-30l-31,-0.33333l-7.66666,-8.66667l-1,-4.66667l9.66666,-19l-2,-25h-0.23535" data-paper-data="{&quot;origPos&quot;:null}"/><path d="M149.3347,208.16668h-1.00137l-17.33334,19l1,37.33334l-6.33334,4.66667l-3.66666,-3.66667l-0.66666,-41l-0.37564,0.09269l-17.95769,-16.59271" data-paper-data="{&quot;origPos&quot;:null}"/><path d="M174,213.24999l-26.25,28l0.5,16.75l20,18l29.75,1.75l-2.25,5l-49,-0.75l-0.75,6.75l47,-0.5v9.75h-15.25l0.25,6.25l14.25,1.25l0.08334,1.83333v13.66667l-61.33334,-0.66667v9.33333l47.33334,0.66667l1,13l12.33333,0.66667l0.33334,6l-69.33334,0.33333l-11,-6.66667v-14.66667h9l-0.66666,-9.33333h-8.66666l0.66666,-14.33333l54.33334,-1.33333l-0.66667,-6l-54.33333,0.33333l-1,-16.33333h-3.33334l-1.33334,48.33333l-8.33333,-0.33333l-34.33334,-2.66667l-5.33333,-5l-1,-6.66667l28,-9.33333l3,-19.33333l-1.33333,-9.33333l18.66666,-20.33333l0.33334,-15.33333l-8.91439,-11.35228l-0.75228,0.18563l-17,-18l-1.00001,11.33333l2,16l8.33334,11.33334l-1.33334,7.66667l-8.66666,6l-13.66666,0.33333l-15,-17l-0.66667,-91.33334l4.08333,-2.33333l9.25,14l11,4l11.25,-5.5l2.5,-7.25l8.75,-2.75l4.08095,-0.04977l3.16905,-0.11691l-0.75,-19.25l-7.25,-0.75l-10,-11.25l4.75,-1l6.5,-7.5h29.5l7.25,7l25.25,-0.25l-0.25,-17l-1.25,-29.25l29.75,-0.5h72.75034l15.55664,-8.39844l3.69302,-19.76823l-18.75,-1.5h-87.5l-14,-14.5l6,-6.75l4.75,4.75l9.25,0.25l2.5,-4l25.75,-5l31.75,-1l5.25,-6.75l33.25,0.5l5,7l9.5,1l8.25,8.5l-1,11.5l5,10.75l23,0.75l-4.57511,15.91121l1.07511,0.00546l-16.75,15.5l-28.75,-0.25l-8.25,9.75l-72,0.75l-23.5,11.25l0.25,17l5.25,0.25l-14.75,13.25l-43.75,-0.5l-4.13643,23.01601l2.13643,21.15066l13,1l18,3.75l9.5,9.75l13.75,-1.25l8.5,-6.5l1.75,-12l-8.25,-11.5l-10.5,-2.75l-15.25,7.5l1.75,-13.25l17.75,-1.25l13.5,-14.5l48,0.75l-7,6l-0.25,23l15.75,14.75l84.75,-1.5l15,17l23.25,-0.5l1.5,-1.75l12.25,-11.75l-1,-9l-6.75,-4.5l-0.89583,-10.35417l7.5,-7.25l0.75,-5.75l-4.5,-6.5l-24,-0.75l-9.75,-7.75h-5.25l-4.75,5.25l-4,4.5" data-paper-data="{&quot;origPos&quot;:null}"/><path d="M388,275.79167l-5.33333,-38.33333l16.33333,-10l19.33333,7.33333l-1.66667,41.33333l-30.66667,0.33333z"/><path d="M260.25,215.41667l-47.25,4l-0.75,-28l8.55,0.05l6.45,0.45l2.25,17.75l30.75,-0.25l0.5,6.5" data-paper-data="{&quot;origPos&quot;:null}"/><path d="M278,213.16667l-2.25,-15.25l7.25,-5.25l8.75,5l-1.5,15.25l-10.75,0.75" data-paper-data="{&quot;origPos&quot;:null}"/><path d="M279.25,250.91667l34.25,-1.25l25.5,26.5l-4,5.5l-61.75,1.25l2,-32z" data-paper-data="{&quot;origPos&quot;:null}"/><path d="M421.10417,158.97917l-8.5,17l-10.5,-1.5l-7.25,-15.75l-1.10417,10.27083l6.25,3"/><path d="M79.2,208.8l0.4,5.2"/><path d="M73,188.5l5,-0.25l0.75,6l-5.5,-0.25z"/><path d="M374.5,123.5l-11.75,1.5l-0.75,-6.25"/><path d="M260.33333,210l5.33333,1l-0.83333,6.33333l-30.5,0.5"/></g></g></svg>