<svg version="1.1" width="280" height="296.5" viewBox="0.5 -0.5 280 296.5" xmlns="http://www.w3.org/2000/svg" xmlns:xlink="http://www.w3.org/1999/xlink">
  <!-- Exported by Scratch - http://scratch.mit.edu/ -->
  <path id="ID0.46488114772364497" fill="none" stroke="#666666" stroke-width="2" stroke-linecap="round" d="M 172.1 125 L 188.6 126 L 192.6 120.5 L 180.1 107.5 L 168.1 101 L 176.6 87.5 L 163.6 87 L 143.1 90 L 134.5 82.45 L 127.5 71.95 L 119.5 83.95 L 109.5 90.95 L 88.5 86.45 L 75.5 86.95 L 84 100.45 L 72 106.95 L 59.5 119.95 L 63.5 125.45 L 80 124.45 "/>
  <path id="ID0.5098603721708059" fill="none" stroke="#666666" stroke-width="2" stroke-linecap="round" d="M 80 122 L 82 133 L 75 147 L 78 149 L 87 149 L 91 142 L 121 141.5 L 160.5 142 L 164.25 148 L 173.25 148 L 176.25 146 L 169.25 132 L 171.25 121 "/>
  <path id="ID0.2044088733382523" fill="#666666" stroke="none" d="M 278.75 0.5 C 278.957 0.5 279.144 0.668 279.28 0.94 C 279.416 1.211 279.5 1.586 279.5 2 C 279.5 2.414 279.416 2.789 279.28 3.06 C 279.144 3.332 278.957 3.5 278.75 3.5 C 278.543 3.5 278.356 3.332 278.22 3.06 C 278.084 2.789 278 2.414 278 2 C 278 1.586 278.084 1.211 278.22 0.94 C 278.356 0.668 278.543 0.5 278.75 0.5 Z " stroke-width="1"/>
  <path id="ID0.16527725476771593" fill="none" stroke="#666666" stroke-width="2" stroke-linecap="round" d="M 95 295 L 94.9 224 L 54.9 182.5 L 23.25 182.5 L 1.5 160 L 1.5 115.65 L 21.5 99.65 L 21.5 60.5 L 61.5 23.5 L 126.25 23.5 "/>
  <path id="ID0.16527725476771593" fill="none" stroke="#666666" stroke-width="2" stroke-linecap="round" d="M 156.5 295 L 156.6 224 L 196.6 182.5 L 228.25 182.5 L 250 160 L 250 115.65 L 230 99.65 L 230 60.5 L 190 23.5 L 125.25 23.5 "/>
</svg>